<svg xmlns="http://www.w3.org/2000/svg" viewBox="0 0 512 512" width="512" height="512">
  <defs>
    <filter id="sg" x="-200%" y="-200%" width="500%" height="500%">
      <feGaussianBlur in="SourceGraphic" stdDeviation="6" result="g"/>
      <feMerge><feMergeNode in="g"/><feMergeNode in="SourceGraphic"/></feMerge>
    </filter>
  </defs>
  <path d="M 101.0 335.0 L 101.1 330.9 L 101.2 326.9 L 101.5 322.8 L 101.8 318.8 L 102.3 314.8 L 102.9 310.8 L 103.6 306.8 L 104.4 302.8 L 105.3 298.8 L 106.3 294.9 L 107.4 291.0 L 108.6 287.1 L 109.9 283.3 L 111.3 279.5 L 112.8 275.7 L 114.4 272.0 L 116.1 268.3 L 117.9 264.6 L 119.8 261.0 L 121.8 257.5 L 123.8 254.0 L 126.0 250.6 L 128.3 247.2 L 130.6 243.9 L 133.0 240.6 L 135.5 237.5 L 138.1 234.3 L 140.8 231.3 L 143.6 228.3 L 146.4 225.4 L 149.3 222.6 L 152.3 219.8 L 155.3 217.1 L 158.5 214.5 L 161.6 212.0 L 164.9 209.6 L 168.2 207.3 L 171.6 205.0 L 175.0 202.8 L 178.5 200.8 L 182.0 198.8 L 185.6 196.9 L 189.3 195.1 L 193.0 193.4 L 196.7 191.8 L 200.5 190.3 L 204.3 188.9 L 208.1 187.6 L 212.0 186.4 L 215.9 185.3 L 219.8 184.3 L 223.8 183.4 L 227.8 182.6 L 231.8 181.9 L 235.8 181.3 L 239.8 180.8 L 243.8 180.5 L 247.9 180.2 L 251.9 180.1 L 256.0 180.0 L 260.1 180.1 L 264.1 180.2 L 268.2 180.5 L 272.2 180.8 L 276.2 181.3 L 280.2 181.9 L 284.2 182.6 L 288.2 183.4 L 292.2 184.3 L 296.1 185.3 L 300.0 186.4 L 303.9 187.6 L 307.7 188.9 L 311.5 190.3 L 315.3 191.8 L 319.0 193.4 L 322.7 195.1 L 326.4 196.9 L 330.0 198.8 L 333.5 200.8 L 337.0 202.8 L 340.4 205.0 L 343.8 207.3 L 347.1 209.6 L 350.4 212.0 L 353.5 214.5 L 356.7 217.1 L 359.7 219.8 L 362.7 222.6 L 365.6 225.4 L 368.4 228.3 L 371.2 231.3 L 373.9 234.3 L 376.5 237.5 L 379.0 240.6 L 381.4 243.9 L 383.7 247.2 L 386.0 250.6 L 388.2 254.0 L 390.2 257.5 L 392.2 261.0 L 394.1 264.6 L 395.9 268.3 L 397.6 272.0 L 399.2 275.7 L 400.7 279.5 L 402.1 283.3 L 403.4 287.1 L 404.6 291.0 L 405.7 294.9 L 406.7 298.8 L 407.6 302.8 L 408.4 306.8 L 409.1 310.8 L 409.7 314.8 L 410.2 318.8 L 410.5 322.8 L 410.8 326.9 L 410.9 330.9 L 411.0 335.0 L 411.0 335.0 L 410.9 336.7 L 410.8 338.4 L 410.5 340.1 L 410.2 341.8 L 409.7 343.6 L 409.1 345.2 L 408.4 346.9 L 407.6 348.6 L 406.7 350.3 L 405.7 352.0 L 404.6 353.6 L 403.4 355.2 L 402.1 356.9 L 400.7 358.5 L 399.2 360.1 L 397.6 361.6 L 395.9 363.2 L 394.1 364.7 L 392.2 366.3 L 390.2 367.8 L 388.2 369.2 L 386.0 370.7 L 383.7 372.1 L 381.4 373.5 L 379.0 374.9 L 376.5 376.2 L 373.9 377.5 L 371.2 378.8 L 368.4 380.1 L 365.6 381.3 L 362.7 382.5 L 359.7 383.7 L 356.7 384.8 L 353.5 385.9 L 350.4 387.0 L 347.1 388.0 L 343.8 389.0 L 340.4 389.9 L 337.0 390.9 L 333.5 391.7 L 330.0 392.6 L 326.4 393.4 L 322.7 394.1 L 319.0 394.8 L 315.3 395.5 L 311.5 396.2 L 307.7 396.7 L 303.9 397.3 L 300.0 397.8 L 296.1 398.3 L 292.2 398.7 L 288.2 399.1 L 284.2 399.4 L 280.2 399.7 L 276.2 399.9 L 272.2 400.1 L 268.2 400.3 L 264.1 400.4 L 260.1 400.5 L 256.0 400.5 L 251.9 400.5 L 247.9 400.4 L 243.8 400.3 L 239.8 400.1 L 235.8 399.9 L 231.8 399.7 L 227.8 399.4 L 223.8 399.1 L 219.8 398.7 L 215.9 398.3 L 212.0 397.8 L 208.1 397.3 L 204.3 396.7 L 200.5 396.2 L 196.7 395.5 L 193.0 394.8 L 189.3 394.1 L 185.6 393.4 L 182.0 392.6 L 178.5 391.7 L 175.0 390.9 L 171.6 389.9 L 168.2 389.0 L 164.9 388.0 L 161.6 387.0 L 158.5 385.9 L 155.3 384.8 L 152.3 383.7 L 149.3 382.5 L 146.4 381.3 L 143.6 380.1 L 140.8 378.8 L 138.1 377.5 L 135.5 376.2 L 133.0 374.9 L 130.6 373.5 L 128.3 372.1 L 126.0 370.7 L 123.8 369.2 L 121.8 367.8 L 119.8 366.3 L 117.9 364.7 L 116.1 363.2 L 114.4 361.6 L 112.8 360.1 L 111.3 358.5 L 109.9 356.9 L 108.6 355.2 L 107.4 353.6 L 106.3 352.0 L 105.3 350.3 L 104.4 348.6 L 103.6 346.9 L 102.9 345.2 L 102.3 343.6 L 101.8 341.8 L 101.5 340.1 L 101.2 338.4 L 101.1 336.7 L 101.0 335.0 Z" fill="none" stroke="#3CCCB4" stroke-width="6.0" stroke-linejoin="round"/>
  <path d="M 126.7 249.5 L 125.7 251.2 L 124.7 252.9 L 123.9 254.6 L 123.3 256.3 L 122.7 258.0 L 122.3 259.8 L 122.0 261.5 L 121.8 263.2 L 121.8 265.0 L 121.8 266.7 L 122.1 268.5 L 122.4 270.2 L 122.8 271.9 L 123.4 273.7 L 124.1 275.4 L 125.0 277.1 L 125.9 278.8 L 127.0 280.5 L 128.2 282.1 L 129.5 283.8 L 131.0 285.4 L 132.5 287.0 L 134.2 288.6 L 136.0 290.2 L 137.9 291.7 L 139.9 293.3 L 142.1 294.7 L 144.3 296.2 L 146.6 297.6 L 149.1 299.1 L 151.6 300.4 L 154.3 301.8 L 157.0 303.1 L 159.8 304.3 L 162.7 305.6 L 165.8 306.8 L 168.8 307.9 L 172.0 309.0 L 175.3 310.1 L 178.6 311.1 L 182.0 312.1 L 185.5 313.0 L 189.0 313.9 L 192.6 314.8 L 196.3 315.6 L 200.0 316.3 L 203.8 317.0 L 207.6 317.7 L 211.5 318.3 L 215.4 318.8 L 219.4 319.3 L 223.3 319.8 L 227.4 320.2 L 231.4 320.5 L 235.5 320.8 L 239.5 321.1 L 243.6 321.3 L 247.8 321.4 L 251.9 321.5 L 256.0 321.5 L 260.1 321.5 L 264.2 321.4 L 268.4 321.3 L 272.5 321.1 L 276.5 320.8 L 280.6 320.5 L 284.6 320.2 L 288.7 319.8 L 292.6 319.3 L 296.6 318.8 L 300.5 318.3 L 304.4 317.7 L 308.2 317.0 L 312.0 316.3 L 315.7 315.6 L 319.4 314.8 L 323.0 313.9 L 326.5 313.0 L 330.0 312.1 L 333.4 311.1 L 336.7 310.1 L 340.0 309.0 L 343.2 307.9 L 346.2 306.8 L 349.3 305.6 L 352.2 304.3 L 355.0 303.1 L 357.7 301.8 L 360.4 300.4 L 362.9 299.1 L 365.4 297.6 L 367.7 296.2 L 369.9 294.7 L 372.1 293.3 L 374.1 291.7 L 376.0 290.2 L 377.8 288.6 L 379.5 287.0 L 381.0 285.4 L 382.5 283.8 L 383.8 282.1 L 385.0 280.5 L 386.1 278.8 L 387.0 277.1 L 387.9 275.4 L 388.6 273.7 L 389.2 271.9 L 389.6 270.2 L 389.9 268.5 L 390.2 266.7 L 390.2 265.0 L 390.2 263.2 L 390.0 261.5 L 389.7 259.8 L 389.3 258.0 L 388.7 256.3 L 388.1 254.6 L 387.3 252.9 L 386.3 251.2 L 385.3 249.5" fill="none" stroke="#3CCCB4" stroke-width="4.0" opacity="0.95"/>
  <path d="M 210.3 186.9 L 207.7 187.7 L 205.2 188.6 L 202.8 189.5 L 200.5 190.5 L 198.3 191.5 L 196.2 192.5 L 194.2 193.6 L 192.3 194.7 L 190.5 195.8 L 188.8 197.0 L 187.3 198.2 L 185.8 199.5 L 184.5 200.7 L 183.3 202.0 L 182.3 203.3 L 181.3 204.6 L 180.5 205.9 L 179.8 207.3 L 179.3 208.6 L 178.9 210.0 L 178.6 211.3 L 178.5 212.7 L 178.5 214.1 L 178.7 215.4 L 178.9 216.8 L 179.3 218.2 L 179.9 219.5 L 180.6 220.9 L 181.4 222.2 L 182.3 223.5 L 183.4 224.8 L 184.6 226.1 L 185.9 227.3 L 187.4 228.5 L 188.9 229.7 L 190.6 230.9 L 192.4 232.1 L 194.3 233.2 L 196.3 234.2 L 198.4 235.3 L 200.7 236.3 L 203.0 237.2 L 205.4 238.2 L 207.9 239.0 L 210.5 239.9 L 213.1 240.6 L 215.9 241.4 L 218.7 242.1 L 221.6 242.7 L 224.5 243.3 L 227.5 243.8 L 230.5 244.3 L 233.6 244.7 L 236.7 245.1 L 239.9 245.4 L 243.1 245.6 L 246.3 245.8 L 249.5 246.0 L 252.8 246.1 L 256.0 246.1 L 259.2 246.1 L 262.5 246.0 L 265.7 245.8 L 268.9 245.6 L 272.1 245.4 L 275.3 245.1 L 278.4 244.7 L 281.5 244.3 L 284.5 243.8 L 287.5 243.3 L 290.4 242.7 L 293.3 242.1 L 296.1 241.4 L 298.9 240.6 L 301.5 239.9 L 304.1 239.0 L 306.6 238.2 L 309.0 237.2 L 311.3 236.3 L 313.6 235.3 L 315.7 234.2 L 317.7 233.2 L 319.6 232.1 L 321.4 230.9 L 323.1 229.7 L 324.6 228.5 L 326.1 227.3 L 327.4 226.1 L 328.6 224.8 L 329.7 223.5 L 330.6 222.2 L 331.4 220.9 L 332.1 219.5 L 332.7 218.2 L 333.1 216.8 L 333.3 215.4 L 333.5 214.1 L 333.5 212.7 L 333.4 211.3 L 333.1 210.0 L 332.7 208.6 L 332.2 207.3 L 331.5 205.9 L 330.7 204.6 L 329.7 203.3 L 328.7 202.0 L 327.5 200.7 L 326.2 199.5 L 324.7 198.2 L 323.2 197.0 L 321.5 195.8 L 319.7 194.7 L 317.8 193.6 L 315.8 192.5 L 313.7 191.5 L 311.5 190.5 L 309.2 189.5 L 306.8 188.6 L 304.3 187.7 L 301.7 186.9" fill="none" stroke="#3CCCB4" stroke-width="4.0" opacity="0.95"/>
  <path d="M 146.4 381.3 L 146.4 377.6 L 146.5 373.9 L 146.7 370.1 L 147.0 366.3 L 147.3 362.5 L 147.8 358.7 L 148.2 354.9 L 148.8 351.0 L 149.4 347.1 L 150.2 343.3 L 150.9 339.4 L 151.8 335.5 L 152.7 331.6 L 153.7 327.7 L 154.8 323.8 L 155.9 320.0 L 157.1 316.1 L 158.4 312.3 L 159.8 308.4 L 161.2 304.6 L 162.7 300.8 L 164.2 297.1 L 165.8 293.3 L 167.5 289.6 L 169.2 285.9 L 171.0 282.3 L 172.8 278.7 L 174.7 275.1 L 176.7 271.6 L 178.7 268.1 L 180.8 264.6 L 182.9 261.2 L 185.1 257.9 L 187.3 254.6 L 189.5 251.4 L 191.9 248.2 L 194.2 245.1 L 196.6 242.0 L 199.0 239.0 L 201.5 236.1 L 204.0 233.3 L 206.6 230.5 L 209.2 227.8 L 211.8 225.1 L 214.4 222.6 L 217.1 220.1 L 219.8 217.7 L 222.6 215.4 L 225.3 213.1 L 228.1 211.0 L 230.9 208.9 L 233.7 206.9 L 236.5 205.0 L 239.4 203.2 L 242.2 201.5 L 245.1 199.8 L 247.9 198.3 L 250.8 196.9 L 256.0 194.5 L 256.6 194.3 L 259.4 193.1 L 262.3 192.1 L 265.2 191.1 L 268.1 190.3 L 270.9 189.5 L 273.8 188.9 L 276.6 188.3 L 279.4 187.9 L 282.2 187.5 L 285.0 187.3 L 287.8 187.1 L 290.5 187.1 L 293.2 187.1 L 295.9 187.3 L 298.6 187.6 L 301.2 187.9 L 303.8 188.4 L 306.4 189.0 L 308.9 189.6 L 311.4 190.4 L 313.9 191.3 L 316.3 192.2" fill="none" stroke="#3CCCB4" stroke-width="4.0" opacity="0.95"/>
  <path d="M 256.0 400.5 L 256.0 396.8 L 256.0 393.0 L 256.0 389.2 L 256.0 385.3 L 256.0 381.4 L 256.0 377.5 L 256.0 373.6 L 256.0 369.6 L 256.0 365.6 L 256.0 361.6 L 256.0 357.5 L 256.0 353.5 L 256.0 349.4 L 256.0 345.3 L 256.0 341.2 L 256.0 337.1 L 256.0 333.0 L 256.0 328.9 L 256.0 324.9 L 256.0 320.8 L 256.0 316.7 L 256.0 312.7 L 256.0 308.6 L 256.0 304.6 L 256.0 300.6 L 256.0 296.6 L 256.0 292.7 L 256.0 288.7 L 256.0 284.8 L 256.0 281.0 L 256.0 277.2 L 256.0 273.4 L 256.0 269.7 L 256.0 266.0 L 256.0 262.3 L 256.0 258.7 L 256.0 255.2 L 256.0 251.7 L 256.0 248.3 L 256.0 244.9 L 256.0 241.6 L 256.0 238.4 L 256.0 235.2 L 256.0 232.1 L 256.0 229.1 L 256.0 226.2 L 256.0 223.3 L 256.0 220.5 L 256.0 217.8 L 256.0 215.1 L 256.0 212.6 L 256.0 210.1 L 256.0 207.7 L 256.0 205.4 L 256.0 203.2 L 256.0 201.1 L 256.0 199.1 L 256.0 197.2 L 256.0 194.5 L 256.0 193.6 L 256.0 192.0 L 256.0 190.5 L 256.0 189.0 L 256.0 187.7 L 256.0 186.5 L 256.0 185.4 L 256.0 184.4 L 256.0 183.4 L 256.0 182.6 L 256.0 181.9 L 256.0 181.3 L 256.0 180.9 L 256.0 180.5 L 256.0 180.2 L 256.0 180.1 L 256.0 180.0" fill="none" stroke="#3CCCB4" stroke-width="4.0" opacity="0.95"/>
  <path d="M 365.6 381.3 L 365.6 377.6 L 365.5 373.9 L 365.3 370.1 L 365.0 366.3 L 364.7 362.5 L 364.2 358.7 L 363.8 354.9 L 363.2 351.0 L 362.6 347.1 L 361.8 343.3 L 361.1 339.4 L 360.2 335.5 L 359.3 331.6 L 358.3 327.7 L 357.2 323.8 L 356.1 320.0 L 354.9 316.1 L 353.6 312.3 L 352.2 308.4 L 350.8 304.6 L 349.3 300.8 L 347.8 297.1 L 346.2 293.3 L 344.5 289.6 L 342.8 285.9 L 341.0 282.3 L 339.2 278.7 L 337.3 275.1 L 335.3 271.6 L 333.3 268.1 L 331.2 264.6 L 329.1 261.2 L 326.9 257.9 L 324.7 254.6 L 322.5 251.4 L 320.1 248.2 L 317.8 245.1 L 315.4 242.0 L 313.0 239.0 L 310.5 236.1 L 308.0 233.3 L 305.4 230.5 L 302.8 227.8 L 300.2 225.1 L 297.6 222.6 L 294.9 220.1 L 292.2 217.7 L 289.4 215.4 L 286.7 213.1 L 283.9 211.0 L 281.1 208.9 L 278.3 206.9 L 275.5 205.0 L 272.6 203.2 L 269.8 201.5 L 266.9 199.8 L 264.1 198.3 L 261.2 196.9 L 256.0 194.5 L 255.4 194.3 L 252.6 193.1 L 249.7 192.1 L 246.8 191.1 L 243.9 190.3 L 241.1 189.5 L 238.2 188.9 L 235.4 188.3 L 232.6 187.9 L 229.8 187.5 L 227.0 187.3 L 224.2 187.1 L 221.5 187.1 L 218.8 187.1 L 216.1 187.3 L 213.4 187.6 L 210.8 187.9 L 208.2 188.4 L 205.6 189.0 L 203.1 189.6 L 200.6 190.4 L 198.1 191.3 L 195.7 192.2" fill="none" stroke="#3CCCB4" stroke-width="4.0" opacity="0.95"/>
  <circle cx="208.0" cy="331.4" r="7.0" fill="#3CCCB4" opacity="0.9"/>
  <circle cx="281.8" cy="268.1" r="6.5" fill="#3CCCB4" opacity="0.9"/>
  <circle cx="131.0" cy="347.6" r="6.0" fill="#3CCCB4" opacity="0.9"/>
  <circle cx="337.6" cy="295.5" r="6.0" fill="#3CCCB4" opacity="0.9"/>
  <circle cx="228.3" cy="232.8" r="5.5" fill="#3CCCB4" opacity="0.9"/>
  <circle cx="394.8" cy="322.3" r="6.0" fill="#3CCCB4" opacity="0.9"/>
  <polygon points="256.0,102.5 258.1,120.4 276.0,122.5 258.1,124.6 256.0,142.5 253.9,124.6 236.0,122.5 253.9,120.4" fill="#D4A017" filter="url(#sg)"/>
</svg>